<?xml version="1.0" standalone="no"?>
<!DOCTYPE svg PUBLIC "-//W3C//DTD SVG 20010904//EN"
 "http://www.w3.org/TR/2001/REC-SVG-20010904/DTD/svg10.dtd">
<svg version="1.0" xmlns="http://www.w3.org/2000/svg"
 width="1920.000000pt" height="1080.000000pt" viewBox="0 0 1920.000000 1080.000000"
 preserveAspectRatio="xMidYMid meet">

<g transform="translate(0.000000,1080.000000) scale(0.100000,-0.100000)"
fill="#000000" stroke="none">
<path d="M14857 6983 c-3 -5 36 -94 87 -198 50 -105 108 -226 128 -270 20 -44
68 -145 106 -225 38 -80 81 -170 95 -200 14 -30 81 -170 149 -310 l123 -255 5
-440 5 -440 235 0 235 0 5 440 5 440 121 250 c154 317 254 526 254 530 0 1 41
86 90 189 50 102 90 188 90 191 0 2 32 68 70 146 39 77 70 145 70 150 0 6
-103 8 -247 7 l-247 -3 -68 -170 c-38 -93 -116 -285 -172 -425 -57 -140 -120
-295 -140 -343 -20 -48 -41 -100 -47 -115 -10 -25 -11 -26 -24 -9 -7 10 -26
52 -43 95 -54 141 -283 715 -336 842 l-52 125 -246 3 c-136 1 -249 -1 -251 -5z"/>
<path d="M17090 5193 c-66 -24 -144 -106 -164 -173 -20 -68 -20 -173 0 -233
50 -146 225 -224 376 -167 185 69 246 312 123 482 -68 93 -215 133 -335 91z"/>
</g>
</svg>
